#!OML:ASF F:\VICON\USERDATA\INSTALL\rory3\rory3.ASF
:FULLY-SPECIFIED
:DEGREES
365
root 1.13787 17.7098 34.2755 -0.558465 -1.1432 3.69028
lowerback 6.44286 -1.17911 -5.06416
upperback 0.342711 -1.89791 1.26922
thorax -3.05226 -0.867618 4.33203
lowerneck -15.5711 -2.81673 -2.20053
upperneck 19.0382 -3.75366 1.82188
head 8.58241 -1.74065 0.530123
rclavicle -1.77167e-014 4.77083e-015
rhumerus -32.812 -13.564 -79.68
rradius 28.3119
rwrist 3.74445
rhand -13.0828 21.1415
rfingers 7.12502
rthumb 13.0134 -8.43256
lclavicle -1.77167e-014 4.77083e-015
lhumerus -28.64 -9.57228 80.5955
lradius 39.2843
lwrist 6.52123
lhand -28.0058 25.9437
lfingers 7.12502
lthumb -1.39152 55.9189
rfemur -29.6559 9.78695 13.6598
rtibia 10.7709
rfoot -11.5799 -16.6048
rtoes -19.071
lfemur 8.86578 -1.89606 -29.1286
ltibia 17.0881
lfoot -19.6665 -0.179278
ltoes -16.5306
366
root 1.1245 17.6852 34.4412 -0.500388 -1.12236 3.88871
lowerback 6.45853 -1.19936 -5.26222
upperback 0.262838 -1.9429 1.23755
thorax -3.1338 -0.883102 4.41685
lowerneck -15.2838 -2.76293 -2.1904
upperneck 18.878 -3.67436 1.77679
head 8.47342 -1.7104 0.527292
rclavicle 7.35503e-015 5.56597e-015
rhumerus -32.8465 -13.5011 -79.6104
rradius 28.0767
rwrist 3.63436
rhand -12.9835 21.5138
rfingers 7.12502
rthumb 13.1091 -8.05418
lclavicle 7.35503e-015 5.56597e-015
lhumerus -28.6839 -9.52033 80.5794
lradius 39.2765
lwrist 6.46759
lhand -27.7097 25.8975
lfingers 7.12502
lthumb -1.10554 55.8744
rfemur -30.3073 7.82854 14.4487
rtibia 12.1603
rfoot -11.2382 -14.9199
rtoes -16.4415
lfemur 9.55953 -1.97459 -29.3348
ltibia 16.7488
lfoot -19.6118 -0.264577
ltoes -17.6039
367
root 1.11631 17.6606 34.602 -0.456721 -1.0067 4.23985
lowerback 6.67883 -1.23922 -5.55942
upperback 0.20375 -2.03471 1.15502
thorax -3.30148 -0.917982 4.5152
lowerneck -15.285 -2.73116 -2.13896
upperneck 18.7752 -3.63099 1.73226
head 8.43607 -1.6913 0.509494
rclavicle -2.87244e-014 1.03368e-014
rhumerus -32.9771 -13.3413 -79.6299
rradius 28.284
rwrist 3.36471
rhand -12.9332 21.8387
rfingers 7.12502
rthumb 13.1575 -7.72611
lclavicle -2.87244e-014 1.03368e-014
lhumerus -28.6397 -9.42774 80.6073
lradius 39.1869
lwrist 6.24608
lhand -27.8715 25.0371
lfingers 7.12502
lthumb -1.26185 55.0131
rfemur -30.9477 5.85575 15.0242
rtibia 13.6529
rfoot -10.5742 -13.5473
rtoes -17.4696
lfemur 10.187 -2.1785 -29.7227
ltibia 16.5461
lfoot -19.5063 -0.631569
ltoes -16.5767
368
root 1.10366 17.6393 34.7718 -0.569685 -1.14446 4.09953
lowerback 6.99379 -1.21422 -5.41916
upperback 0.171175 -2.0064 1.22748
thorax -3.51763 -0.897664 4.52107
lowerneck -15.3411 -2.70816 -2.1539
upperneck 18.8185 -3.59832 1.74532
head 8.46065 -1.67502 0.519298
rclavicle -2.62893e-014 -4.77083e-015
rhumerus -33.2596 -13.2452 -79.607
rradius 28.6509
rwrist 3.29893
rhand -13.005 21.8743
rfingers 7.12502
rthumb 13.0884 -7.69499
lclavicle -2.62893e-014 -4.77083e-015
lhumerus -28.7631 -9.02791 80.6151
lradius 39.2377
lwrist 5.93117
lhand -28.0634 24.2612
lfingers 7.12502
lthumb -1.44718 54.236
rfemur -31.3614 4.82316 15.8982
rtibia 15.1075
rfoot -9.88567 -12.6914
rtoes -19.4884
lfemur 11.114 -2.22806 -29.6041
ltibia 16.4467
lfoot -19.5178 -0.472536
ltoes -17.6909
369
root 1.08474 17.618 34.9577 -0.750022 -1.39268 3.80549
lowerback 6.99615 -1.17378 -5.18961
upperback 0.362 -1.92622 1.34022
thorax -3.33289 -0.871005 4.49784
lowerneck -15.7463 -2.70231 -2.18585
upperneck 18.926 -3.57677 1.74912
head 8.57039 -1.66304 0.52285
rclavicle -8.69683e-015 3.18055e-015
rhumerus -33.1108 -13.1825 -79.6964
rradius 28.7172
rwrist 3.32355
rhand -13.1081 21.4339
rfingers 7.12502
rthumb 12.989 -8.14174
lclavicle -8.69683e-015 3.18055e-015
lhumerus -28.5322 -8.62858 80.5734
lradius 39.1972
lwrist 5.84021
lhand -27.9409 25.0649
lfingers 7.12502
lthumb -1.32882 55.0405
rfemur -31.5378 4.94897 16.4727
rtibia 16.4178
rfoot -9.64135 -12.4075
rtoes -19.5486
lfemur 12.2237 -2.39264 -29.3889
ltibia 16.4588
lfoot -19.6195 0.0989248
ltoes -19.1125
370
root 1.06685 17.5984 35.1554 -0.988212 -1.40553 3.58034
lowerback 6.83658 -1.20304 -5.00118
upperback 0.701269 -1.93396 1.40431
thorax -2.89356 -0.898366 4.44606
lowerneck -16.1016 -2.69177 -2.22187
upperneck 18.848 -3.57664 1.90222
head 8.61169 -1.64664 0.576291
rclavicle 1.20762e-014 1.51076e-014
rhumerus -32.5872 -13.532 -79.7461
rradius 28.3902
rwrist 3.69291
rhand -13.2722 21.4625
rfingers 7.12502
rthumb 12.8308 -8.12312
lclavicle 1.20762e-014 1.51076e-014
lhumerus -28.1329 -8.36458 80.4895
lradius 39.0352
lwrist 5.63033
lhand -27.8118 25.7539
lfingers 7.12502
lthumb -1.20418 55.7302
rfemur -31.327 5.17965 16.7984
rtibia 17.3894
rfoot -9.79309 -11.9731
rtoes -17.2449
lfemur 13.2133 -2.6261 -29.2454
ltibia 16.7093
lfoot -19.7321 0.48831
ltoes -20.5036
371
root 1.04362 17.5863 35.3524 -1.16321 -1.20029 3.51546
lowerback 6.80737 -1.2954 -5.06492
upperback 0.819551 -2.05636 1.4646
thorax -2.73602 -0.965969 4.55165
lowerneck -15.8977 -2.62533 -2.15818
upperneck 18.584 -3.48842 1.85364
head 8.48138 -1.60844 0.563652
rclavicle 1.19271e-014 2.38542e-015
rhumerus -32.491 -13.8431 -79.6287
rradius 28.238
rwrist 4.14657
rhand -13.2622 21.1995
rfingers 7.12502
rthumb 12.8404 -8.38557
lclavicle 1.19271e-014 2.38542e-015
lhumerus -28.1563 -7.96571 80.5002
lradius 38.8308
lwrist 5.29739
lhand -27.8672 25.862
lfingers 7.12502
lthumb -1.25767 55.838
rfemur -31.1009 5.18898 16.9626
rtibia 18.3152
rfoot -10.0573 -11.0929
rtoes -14.6847
lfemur 13.8782 -2.90228 -29.1787
ltibia 16.9574
lfoot -19.4562 0.309882
ltoes -21.2514
372
root 1.01399 17.5858 35.5416 -1.05411 -0.877757 3.25176
lowerback 6.73088 -1.42048 -4.99691
upperback 0.727323 -2.21067 1.63223
thorax -2.76713 -1.04004 4.70032
lowerneck -15.6148 -2.59662 -2.08855
upperneck 18.3571 -3.42691 1.66657
head 8.34785 -1.59713 0.501152
rclavicle 5.2181e-015 -1.59028e-015
rhumerus -32.611 -13.7808 -79.4697
rradius 28.1569
rwrist 4.11089
rhand -12.9763 20.7496
rfingers 7.12502
rthumb 13.1161 -8.81795
lclavicle 5.2181e-015 -1.59028e-015
lhumerus -28.3841 -7.63249 80.632
lradius 38.6362
lwrist 5.1963
lhand -28.0214 25.8548
lfingers 7.12502
lthumb -1.40656 55.8299
rfemur -31.1308 5.39289 17.2272
rtibia 19.1841
rfoot -10.0527 -10.4465
rtoes -14.8222
lfemur 13.9228 -3.38413 -28.8347
ltibia 17.1954
lfoot -18.7968 -0.450946
ltoes -20.2989
373
root 0.99114 17.5853 35.7399 -1.07222 -0.396799 3.21276
lowerback 6.6248 -1.62199 -5.04947
upperback 0.672416 -2.47591 1.72893
thorax -2.72716 -1.1715 4.84945
lowerneck -15.394 -2.57686 -2.17005
upperneck 18.3467 -3.36663 1.58301
head 8.30353 -1.58478 0.496408
rclavicle 1.4561e-014 3.18055e-015
rhumerus -32.8001 -13.7294 -79.2702
rradius 28.1095
rwrist 4.0787
rhand -12.7012 20.4708
rfingers 7.12502
rthumb 13.3812 -9.07943
lclavicle 1.4561e-014 3.18055e-015
lhumerus -28.6375 -7.31656 80.7584
lradius 38.2758
lwrist 5.14812
lhand -28.0599 25.7701
lfingers 7.12502
lthumb -1.44378 55.7449
rfemur -30.8345 5.1962 17.3212
rtibia 19.9462
rfoot -10.0886 -9.59655
rtoes -15.6323
lfemur 14.559 -3.68499 -28.7178
ltibia 17.4728
lfoot -18.5169 -0.748257
ltoes -21.8088
374
root 0.963873 17.584 35.9519 -1.10345 0.0759951 3.08095
lowerback 6.47756 -1.77842 -5.06201
upperback 0.570316 -2.67628 1.8498
thorax -2.72038 -1.26886 4.99482
lowerneck -15.1023 -2.60172 -2.2941
upperneck 18.4069 -3.38599 1.61597
head 8.27482 -1.60134 0.528785
rclavicle -9.54166e-015 7.95139e-016
rhumerus -33.1029 -14.2231 -78.8712
rradius 27.8838
rwrist 4.61461
rhand -12.7543 20.559
rfingers 7.12502
rthumb 13.3301 -8.99464
lclavicle -9.54166e-015 7.95139e-016
lhumerus -28.9115 -7.22804 80.9861
lradius 37.7479
lwrist 5.27471
lhand -27.1909 26.1367
lfingers 7.12502
lthumb -0.604495 56.1156
rfemur -30.3978 5.04969 17.5335
rtibia 20.652
rfoot -10.1312 -8.71989
rtoes -15.7279
lfemur 15.3036 -4.00832 -28.4972
ltibia 17.6567
lfoot -18.223 -0.99097
ltoes -23.569
375
root 0.933951 17.5871 36.1653 -1.03685 0.560519 2.93599
lowerback 6.34582 -1.92452 -5.07929
upperback 0.424664 -2.86499 1.9585
thorax -2.7684 -1.35754 5.13069
lowerneck -15.0142 -2.59604 -2.26599
upperneck 18.5636 -3.37995 1.56626
head 8.31013 -1.60194 0.508667
rclavicle -1.97294e-014 1.90833e-014
rhumerus -33.3481 -14.8509 -78.4267
rradius 27.4933
rwrist 5.23045
rhand -12.7645 21.165
rfingers 7.12502
rthumb 13.3202 -8.38929
lclavicle -1.97294e-014 1.90833e-014
lhumerus -29.1362 -6.9039 81.1417
lradius 37.3016
lwrist 5.12066
lhand -26.1899 26.5554
lfingers 7.12502
lthumb 0.362335 56.5348
rfemur -30.1523 5.21192 17.6814
rtibia 21.421
rfoot -9.71385 -8.30407
rtoes -15.9463
lfemur 16.1168 -4.2936 -28.21
ltibia 17.6795
lfoot -17.9506 -1.02962
ltoes -26.6038
376
root 0.907798 17.6095 36.3761 -0.86683 0.979746 2.95023
lowerback 6.10243 -2.04586 -5.19078
upperback 0.261554 -3.02363 2.02123
thorax -2.77266 -1.43123 5.26401
lowerneck -14.9786 -2.62146 -2.30999
upperneck 18.7877 -3.40633 1.54845
head 8.38024 -1.61915 0.506335
rclavicle 1.02126e-014 -2.38542e-015
rhumerus -33.6824 -14.8915 -78.1769
rradius 27.3743
rwrist 5.25555
rhand -12.797 21.419
rfingers 7.12502
rthumb 13.2889 -8.13736
lclavicle 1.02126e-014 -2.38542e-015
lhumerus -29.4215 -6.58125 81.3341
lradius 36.9535
lwrist 4.85363
lhand -26.1046 26.7103
lfingers 7.12502
lthumb 0.444718 56.6896
rfemur -29.9957 5.4326 17.6333
rtibia 22.0364
rfoot -8.4789 -8.2584
rtoes -16.6832
lfemur 16.0286 -4.72719 -28.1358
ltibia 17.918
lfoot -16.7467 -1.90755
ltoes -27.108
